<mxfile host="app.diagrams.net" modified="2024-01-10T19:59:58.663Z" agent="Mozilla/5.0 (Windows NT 10.0; Win64; x64) AppleWebKit/537.36 (KHTML, like Gecko) Chrome/120.0.0.0 Safari/537.36 Edg/120.0.0.0" version="22.1.18" etag="QbdIsf8hsd4n-z-n8Rg5" type="github">
  <diagram name="PÃ¡gina-1" id="LGcR-3hCk567g20iBkNA">
    <mxGraphModel>
      <root>
        <mxCell id="0" />
        <mxCell id="1" parent="0" />
      </root>
    </mxGraphModel>
  </diagram>
</mxfile>
